<svg xmlns="http://www.w3.org/2000/svg" width="317" height="86" fill="none" viewBox="0 0 317 86"><path fill="#350A7B" fill-rule="evenodd" d="M19.4173 32.7001C18.5998 32.6904 17.7096 32.68 16.9009 32.68C16.0314 32.68 15.3359 33.3966 15.3359 34.2925V63.1025C15.3359 71.9891 22.3263 79.1916 30.9512 79.1916H58.6346C67.6769 79.1916 75.0498 71.6308 75.0498 62.3141V23.6858C75.0498 14.7991 68.0246 7.52496 59.3649 7.52496H40.7934C39.8892 7.52496 39.1936 8.27746 39.1936 9.1733V20.7116C39.1936 27.2691 33.9421 32.6441 27.5778 32.68C26.0912 32.68 24.7806 32.6913 23.6337 32.7012C22.7414 32.7089 21.9482 32.7158 21.2481 32.7158C20.7531 32.7158 20.1114 32.7082 19.4173 32.7001ZM18.4578 27.4698C21.3165 27.4806 24.6865 27.4698 27.1106 27.4447C30.957 27.4447 34.1253 24.1803 34.1253 20.2172V10.7715C34.1253 9.22707 32.3064 8.46024 31.2666 9.57465C29.3843 11.5912 26.7976 14.3631 24.2228 17.1223C21.6549 19.8742 19.0987 22.6134 17.2649 24.5781C16.2494 25.6638 16.9936 27.4662 18.4578 27.4698Z" clip-rule="evenodd"/><path fill="#B6A6FF" d="M82.0851 20.1225L63.5824 45.3878C62.7333 46.5351 61.4819 47.1805 60.1411 47.2044L52.7669 47.3C52.3646 47.3 52.0294 47.0132 51.94 46.6068L50.2641 38.934C49.9736 37.5238 50.2641 36.0657 51.1132 34.9423L64.2305 17.0152C64.4539 16.7283 64.8562 16.6829 65.1243 16.8957L70.6438 21.5328C71.0014 21.8435 71.493 22.0109 72.007 21.9392C73.1019 21.7957 73.8394 20.744 73.7276 19.6206C73.6606 19.0469 73.3924 18.5689 73.0349 18.2103C72.9232 18.1147 67.6718 13.6688 67.6718 13.6688C67.3366 13.3819 67.2696 12.8561 67.5377 12.4999L69.6159 9.65311C71.5377 7.0477 74.8896 6.80868 77.5935 9.07944L80.6996 11.6848C81.9734 12.7366 82.8225 14.1229 83.113 15.581C83.4482 17.1849 83.0907 18.7601 82.0851 20.1225Z"/><path fill="#B6A6FF" fill-rule="evenodd" d="M36.2397 47.3H48.0629C49.2165 47.3 50.1547 48.2643 50.1547 49.45C50.1547 50.6379 49.2165 51.6 48.0629 51.6H36.2397C35.0862 51.6 34.1479 50.6379 34.1479 49.45C34.1479 48.2643 35.0862 47.3 36.2397 47.3ZM36.7975 61.275H51.7736C53.2347 61.275 54.4231 62.2393 54.4231 63.425C54.4231 64.6129 53.2347 65.575 51.7736 65.575H36.7975C35.3363 65.575 34.1479 64.6129 34.1479 63.425C34.1479 62.2393 35.3363 61.275 36.7975 61.275Z" clip-rule="evenodd"/><path fill="#350A7B" d="M103.495 39.9375L107.62 65.625H108.12L115.495 39.9375L120.12 41.1875L108.995 74L104.37 74.75L91.7451 41.375L103.495 39.9375ZM127.808 74.75L125.245 39.0625L136.183 37.375L132.87 74.3125L127.808 74.75ZM160.558 53.1875C163.308 56.3958 164.683 60.0417 164.683 64.125C164.683 68.2083 163.87 71.0833 162.245 72.75C160.62 74.4167 157.62 75.25 153.245 75.25C148.87 75.25 145.474 74.25 143.058 72.25C141.391 64.0833 142.349 57.4583 145.933 52.375C148.183 49.25 150.162 47.25 151.87 46.375C155.12 48.0417 158.016 50.3125 160.558 53.1875ZM157.933 69.6875C158.474 67.6042 158.745 65.1875 158.745 62.4375C158.745 59.6875 158.058 56.9792 156.683 54.3125C153.849 55.8125 151.495 58.1042 149.62 61.1875C147.787 64.2292 146.87 67.3125 146.87 70.4375C147.953 70.6458 149.516 70.75 151.558 70.75C153.641 70.75 155.766 70.3958 157.933 69.6875ZM189.87 47.1875C190.495 47.1875 191.141 47.3125 191.808 47.5625C193.141 49.1875 194.203 52.1458 194.995 56.4375H195.37C196.62 53.5625 198.037 51.3125 199.62 49.6875C201.245 48.0208 202.953 47.1875 204.745 47.1875C205.37 47.1875 205.974 47.3125 206.558 47.5625C208.308 49.6458 209.516 53.3542 210.183 58.6875C210.849 63.9792 211.183 69.1875 211.183 74.3125L201.933 74.75C201.933 66.6667 201.683 59.5208 201.183 53.3125C197.099 54.9375 194.391 61.9375 193.058 74.3125L187.058 74.75C187.058 66.6667 186.808 59.5208 186.308 53.3125C184.766 53.8958 183.266 55.5208 181.808 58.1875C180.391 60.8125 179.328 64.9375 178.62 70.5625L178.183 74.3125L173.12 74.75L170.558 49.375L181.495 47.6875L180.495 55.625H180.808C183.474 50 186.495 47.1875 189.87 47.1875Z"/><path fill="#B6A6FF" d="M231.62 51.625C230.37 51.625 229.287 51.875 228.37 52.375C227.912 54.7083 227.683 57.125 227.683 59.625C227.683 64.9167 228.037 68.375 228.745 70C230.37 69.7083 232.099 68.6042 233.933 66.6875C234.933 65.6458 235.745 64.1667 236.37 62.25C237.037 60.3333 237.37 58.125 237.37 55.625C237.37 55.2083 237.328 54.4583 237.245 53.375C235.662 52.2083 233.787 51.625 231.62 51.625ZM235.37 85.25C231.953 85.25 228.453 84.0625 224.87 81.6875L226.245 79.125C229.287 80.4583 231.808 81.125 233.808 81.125C235.808 81.125 237.266 80.5833 238.183 79.5C239.141 78.4583 239.62 77.0625 239.62 75.3125C239.62 74.7708 239.266 70.9792 238.558 63.9375H238.12C235.578 70.7292 231.287 74.125 225.245 74.125C224.412 74.125 223.724 74 223.183 73.75C221.933 72.5 220.912 70.6667 220.12 68.25C219.37 65.7917 218.995 62.8125 218.995 59.3125C218.995 55.8125 219.787 53.1667 221.37 51.375C222.953 49.5417 225.703 48.625 229.62 48.625C232.495 48.625 234.974 49.2917 237.058 50.625L238.183 49.125L248.058 47.6875L244.495 76.3125C244.162 79.0625 243.203 81.2292 241.62 82.8125C240.037 84.4375 237.953 85.25 235.37 85.25ZM263.683 46.375C271.933 49.6667 276.058 53.7917 276.058 58.75C276.058 61.3333 275.328 63.1875 273.87 64.3125C272.412 65.4375 270.078 66 266.87 66C263.703 66 261.308 65.8125 259.683 65.4375C259.058 67.0208 258.724 68.6875 258.683 70.4375C260.224 70.6458 262.37 70.75 265.12 70.75C267.87 70.75 270.828 70.2083 273.995 69.125L275.495 74.0625C272.995 74.8542 270.203 75.25 267.12 75.25C261.578 75.25 257.516 74.2292 254.933 72.1875C254.391 69.7708 254.12 67.5 254.12 65.375C254.12 61.0833 255.058 57.2083 256.933 53.75C258.849 50.25 261.099 47.7917 263.683 46.375ZM260.683 63.0625C261.099 63.1042 262.203 63.125 263.995 63.125C265.828 63.125 267.912 62.875 270.245 62.375C270.328 61.75 270.391 61.1042 270.433 60.4375C270.433 58.3958 269.849 56.4375 268.683 54.5625C265.266 56.8125 262.599 59.6458 260.683 63.0625ZM298.433 57.125C296.099 57.125 294.328 57.9375 293.12 59.5625C291.953 61.1875 291.078 64.1667 290.495 68.5L289.808 74.3125L284.745 74.75L282.183 49.375L293.12 47.6875L292.058 55.875H292.433C295.183 50 298.662 46.875 302.87 46.5L301.433 57.375C300.183 57.2083 299.183 57.125 298.433 57.125Z"/></svg>